<?xml version="1.0" encoding="UTF-8"?>
<svg version="1.1" xmlns="http://www.w3.org/2000/svg" width="695" height="512">
<path d="M0 0 C2.98806885 0.25739919 5.13902373 0.94019144 7.625 2.625 C10.56889649 6.2312732 10.8934294 8.02171613 10.59375 12.546875 C9.91163881 15.66184942 8.28541065 17.40000637 6.125 19.6875 C5.795 20.55375 5.465 21.42 5.125 22.3125 C3.95051733 25.10189633 2.64723399 26.09008514 0.125 27.6875 C0.62 29.6675 0.62 29.6675 1.125 31.6875 C1.785 31.5225 2.445 31.3575 3.125 31.1875 C6.85599794 30.56566701 10.34373378 30.62341074 14.125 30.6875 C14.78101744 32.20396821 15.4242664 33.72596175 16.0625 35.25 C16.60197266 36.52037109 16.60197266 36.52037109 17.15234375 37.81640625 C18.125 40.6875 18.125 40.6875 18.37109375 44.02734375 C19.55238919 49.7624413 23.25677442 53.3598406 26.99609375 57.7265625 C31.12142787 62.82661757 31.12142787 62.82661757 31.140625 67.453125 C28.27041636 76.5936356 19.84739249 83.18041545 13.125 89.6875 C13.90746094 90.07421875 14.68992187 90.4609375 15.49609375 90.859375 C16.50800781 91.38015625 17.51992188 91.9009375 18.5625 92.4375 C20.07650391 93.20320313 20.07650391 93.20320313 21.62109375 93.984375 C24.125 95.6875 24.125 95.6875 24.96484375 97.66796875 C25.30090705 101.90564495 25.47794604 105.62866189 24.125 109.6875 C25.29675781 109.94144531 26.46851563 110.19539063 27.67578125 110.45703125 C62.73930139 118.10569128 62.73930139 118.10569128 69.734375 127.953125 C73.36874391 135.09935599 71.10223214 144.27287949 69.125 151.6875 C70.05441406 152.33976563 70.98382813 152.99203125 71.94140625 153.6640625 C90.07937114 166.45666821 90.07937114 166.45666821 92.125 171.6875 C93.32492839 180.30172273 91.59834711 186.39803023 87.125 193.6875 C86.58617187 194.59113281 86.04734375 195.49476563 85.4921875 196.42578125 C84.46200592 198.1452389 83.41902819 199.85714031 82.359375 201.55859375 C80.99033364 203.7543487 80.99033364 203.7543487 80.125 206.6875 C77.64342779 206.32408984 76.46211787 206.13919387 74.9296875 204.0859375 C72.90218663 199.67314149 71.30379365 195.40267462 70.125 190.6875 C69.15623795 198.89279785 68.32785485 206.11200745 72.125 213.6875 C72.455 214.0175 72.785 214.3475 73.125 214.6875 C73.25 217.1875 73.25 217.1875 73.125 219.6875 C72.125 220.6875 72.125 220.6875 69.90014648 220.80102539 C68.94180908 220.79578857 67.98347168 220.79055176 66.99609375 220.78515625 C65.44438477 220.78032227 65.44438477 220.78032227 63.86132812 220.77539062 C62.77271484 220.76701172 61.68410156 220.75863281 60.5625 220.75 C58.9237793 220.74323242 58.9237793 220.74323242 57.25195312 220.73632812 C54.54291505 220.72449826 51.83398401 220.70801543 49.125 220.6875 C49.03863281 219.82769531 48.95226562 218.96789062 48.86328125 218.08203125 C47.85692482 209.61571154 46.45140511 201.18102487 42.125 193.6875 C40.27742348 192.38933281 40.27742348 192.38933281 38.125 192.6875 C35.52121342 193.89804335 35.52121342 193.89804335 34.125 196.6875 C34.37445108 199.97693874 35.37331536 202.99414207 36.375 206.125 C39.50713937 216.45791203 39.50713937 216.45791203 39.125 220.6875 C30.40796246 221.16782656 22.57795786 219.76063419 14.125 217.6875 C13.465 218.6775 12.805 219.6675 12.125 220.6875 C4.5823991 219.7771861 4.5823991 219.7771861 0.9375 219.0625 C-1.79681394 218.54024007 -1.79681394 218.54024007 -4.15625 219.16015625 C-7.22720303 219.75581524 -10.06193466 219.78434687 -13.1875 219.75 C-14.25613281 219.74097656 -15.32476562 219.73195313 -16.42578125 219.72265625 C-17.23402344 219.71105469 -18.04226563 219.69945312 -18.875 219.6875 C-18.1640625 215.890625 -18.1640625 215.890625 -15.5625 214.0625 C-11.71263029 210.66028956 -10.38441673 206.52775253 -8.875 201.6875 C-8.875 201.0275 -8.875 200.3675 -8.875 199.6875 C-11.74380817 199.69796457 -11.74380817 199.69796457 -14.875 200.6875 C-17.12634891 203.46417525 -17.12634891 203.46417525 -18.875 206.9375 C-24.09655345 216.05447843 -24.09655345 216.05447843 -28.875 218.6875 C-33.15776529 219.28561032 -36.77555399 219.053982 -40.875 217.6875 C-42.91008299 217.64053803 -42.91008299 217.64053803 -45.10546875 217.80859375 C-45.90791016 217.85693359 -46.71035156 217.90527344 -47.53710938 217.95507812 C-48.37048828 218.01115234 -49.20386719 218.06722656 -50.0625 218.125 C-50.90748047 218.17720703 -51.75246094 218.22941406 -52.62304688 218.28320312 C-54.70736299 218.41273689 -56.79123182 218.54943177 -58.875 218.6875 C-58.13672575 215.30990625 -57.18271474 213.60641842 -54.8125 211.0625 C-52.42513292 208.75347823 -52.42513292 208.75347823 -51.875 205.6875 C-52.74640625 206.29078125 -53.6178125 206.8940625 -54.515625 207.515625 C-63.14771606 213.3585303 -72.03770226 219.13823752 -82.875 218.6875 C-81.66887027 208.99323226 -77.68631537 199.79270303 -70.17675781 193.38525391 C-64.98313147 189.54817176 -59.58372677 186.09404473 -54.1015625 182.6875 C-37.32480261 172.24691501 -23.98167057 159.31075283 -18.375 140.0625 C-15.64080627 128.11579765 -16.55761912 119.94854579 -21.46484375 108.9375 C-24.80126878 101.24801073 -25.49292274 91.77623624 -22.93359375 83.7265625 C-20.98776075 79.76169903 -18.64561633 76.34942397 -15.9375 72.875 C-13.55861148 69.97607415 -13.55861148 69.97607415 -14.25 67.3125 C-15.19532053 65.78544376 -16.15285485 64.26557227 -17.140625 62.765625 C-20.83797104 56.77337452 -21.97106752 51.72540722 -20.875 44.6875 C-18.63724766 41.3308715 -17.94179952 41.10753986 -14.25 40 C-13.02410156 39.62294922 -13.02410156 39.62294922 -11.7734375 39.23828125 C-11.14695312 39.05652344 -10.52046875 38.87476563 -9.875 38.6875 C-8.87282936 35.10422247 -8.87282936 35.10422247 -9.875 31.6875 C-12.90434491 31.02977572 -12.90434491 31.02977572 -15.875 30.6875 C-17.79330363 16.55107788 -17.79330363 16.55107788 -15.875 11.6875 C-13.97568488 10.06571038 -12.08131316 9.00952312 -9.85546875 7.8828125 C-7.52213489 6.68430254 -7.52213489 6.68430254 -5.875 3.375 C-3.875 0.6875 -3.875 0.6875 0 0 Z " fill="#121212" transform="translate(332.875,91.3125)"/>
<path d="M0 0 C2.98806885 0.25739919 5.13902373 0.94019144 7.625 2.625 C10.56889649 6.2312732 10.8934294 8.02171613 10.59375 12.546875 C9.91163881 15.66184942 8.28541065 17.40000637 6.125 19.6875 C5.795 20.55375 5.465 21.42 5.125 22.3125 C3.95051733 25.10189633 2.64723399 26.09008514 0.125 27.6875 C0.455 29.0075 0.785 30.3275 1.125 31.6875 C2.115 31.44 2.115 31.44 3.125 31.1875 C6.85599794 30.56566701 10.34373378 30.62341074 14.125 30.6875 C14.78101744 32.20396821 15.4242664 33.72596175 16.0625 35.25 C16.60197266 36.52037109 16.60197266 36.52037109 17.15234375 37.81640625 C18.125 40.6875 18.125 40.6875 18.37109375 44.02734375 C19.55238919 49.7624413 23.25677442 53.3598406 26.99609375 57.7265625 C31.12142787 62.82661757 31.12142787 62.82661757 31.140625 67.453125 C28.27041636 76.5936356 19.84739249 83.18041545 13.125 89.6875 C13.90746094 90.07421875 14.68992187 90.4609375 15.49609375 90.859375 C17.01396484 91.64054687 17.01396484 91.64054687 18.5625 92.4375 C19.57183594 92.94796875 20.58117187 93.4584375 21.62109375 93.984375 C24.125 95.6875 24.125 95.6875 24.96484375 97.66796875 C25.30090705 101.90564495 25.47794604 105.62866189 24.125 109.6875 C25.115 110.1825 25.115 110.1825 26.125 110.6875 C24.805 110.3575 23.485 110.0275 22.125 109.6875 C22.455 107.3775 22.785 105.0675 23.125 102.6875 C22.21004761 102.22694214 22.21004761 102.22694214 21.27661133 101.75708008 C18.49169975 100.34808681 15.71464999 98.92422636 12.9375 97.5 C11.49793945 96.77586914 11.49793945 96.77586914 10.02929688 96.03710938 C4.95074669 93.41875651 0.8504063 91.05109154 -2.875 86.6875 C0.29085422 87.77576239 2.96556697 89.17808703 5.75 91 C10.58109402 94.0885811 15.71184355 96.77375782 21.125 98.6875 C21.785 98.3575 22.445 98.0275 23.125 97.6875 C22.19816406 97.28917969 21.27132812 96.89085937 20.31640625 96.48046875 C19.11886719 95.95066406 17.92132813 95.42085938 16.6875 94.875 C15.49253906 94.35292969 14.29757812 93.83085937 13.06640625 93.29296875 C10.125 91.6875 10.125 91.6875 9.125 88.6875 C9.99382812 87.98625 10.86265625 87.285 11.7578125 86.5625 C23.50930299 77.64612565 23.50930299 77.64612565 29.125 64.6875 C28.15874435 62.57245777 28.15874435 62.57245777 26.51953125 60.69140625 C25.66198242 59.60569336 25.66198242 59.60569336 24.78710938 58.49804688 C24.17673828 57.75619141 23.56636719 57.01433594 22.9375 56.25 C21.75493011 54.77339965 20.57390827 53.29555803 19.39453125 51.81640625 C18.5430249 50.76477295 18.5430249 50.76477295 17.67431641 49.69189453 C16.30161971 47.91599793 15.11598068 46.12860745 13.94921875 44.21484375 C12.37312526 41.61615746 12.37312526 41.61615746 10.125 40.69921875 C7.63864511 40.68465026 6.29498197 41.30057637 4.125 42.5 C3.135 43.03560547 3.135 43.03560547 2.125 43.58203125 C1.465 43.94683594 0.805 44.31164062 0.125 44.6875 C-1.20554983 45.35970486 -2.53810493 46.02800489 -3.875 46.6875 C-3.875 46.0275 -3.875 45.3675 -3.875 44.6875 C-4.70644531 45.03683594 -5.53789062 45.38617188 -6.39453125 45.74609375 C-8.02455078 46.42865234 -8.02455078 46.42865234 -9.6875 47.125 C-11.30591797 47.80369141 -11.30591797 47.80369141 -12.95703125 48.49609375 C-14.9045126 49.29125013 -16.87938943 50.02229648 -18.875 50.6875 C-19.37 53.1625 -19.37 53.1625 -19.875 55.6875 C-20.205 55.6875 -20.535 55.6875 -20.875 55.6875 C-20.92910687 53.91700311 -20.96784119 52.14603151 -21 50.375 C-21.02320313 49.38886719 -21.04640625 48.40273437 -21.0703125 47.38671875 C-20.875 44.6875 -20.875 44.6875 -18.875 41.6875 C-16.7109375 40.73828125 -16.7109375 40.73828125 -14.25 40 C-13.43273437 39.74863281 -12.61546875 39.49726563 -11.7734375 39.23828125 C-11.14695312 39.05652344 -10.52046875 38.87476563 -9.875 38.6875 C-8.87282936 35.10422247 -8.87282936 35.10422247 -9.875 31.6875 C-12.90434491 31.02977572 -12.90434491 31.02977572 -15.875 30.6875 C-17.79330363 16.55107788 -17.79330363 16.55107788 -15.875 11.6875 C-13.97568488 10.06571038 -12.08131316 9.00952312 -9.85546875 7.8828125 C-7.52213489 6.68430254 -7.52213489 6.68430254 -5.875 3.375 C-3.875 0.6875 -3.875 0.6875 0 0 Z " fill="#181818" transform="translate(332.875,91.3125)"/>
<path d="M0 0 C2.12154004 2.12154004 3.13668907 4.21034168 4.40893555 6.89794922 C15.41669403 30.13747773 31.0220358 51.35781756 48.1796875 70.421875 C58.71013256 82.63227432 64 97.04034565 64 113 C71.26 113 78.52 113 86 113 C86 113.33 86 113.66 86 114 C78.41 114 70.82 114 63 114 C62.6596875 110.9371875 62.6596875 110.9371875 62.3125 107.8125 C61.27355215 100.57670718 59.69238318 93.39537087 56 87 C54.15242348 85.70183281 54.15242348 85.70183281 52 86 C49.39621342 87.21054335 49.39621342 87.21054335 48 90 C48.24945108 93.28943874 49.24831536 96.30664207 50.25 99.4375 C53.38213937 109.77041203 53.38213937 109.77041203 53 114 C44.28296246 114.48032656 36.45295786 113.07313419 28 111 C27.34 111.99 26.68 112.98 26 114 C22.25014277 113.54743102 18.53231936 113.09393871 14.8125 112.4375 C12.15371904 112.02391185 9.68488376 111.92103283 7 112 C12.403124 108.67500061 18.00900249 110.0414404 24 111 C22.4221875 109.824375 22.4221875 109.824375 20.8125 108.625 C16.3602565 104.83067912 14.2480708 100.31285646 12 95 C11.60425781 94.13503906 11.20851563 93.27007812 10.80078125 92.37890625 C10 90 10 90 11 87 C11.42410156 87.78503906 11.84820312 88.57007813 12.28515625 89.37890625 C17.63351908 98.95894077 22.60175046 105.92025085 33 110 C36.3088641 110.81731572 39.62261538 111.30902044 43 111.75 C43.87011719 111.87503906 44.74023438 112.00007813 45.63671875 112.12890625 C47.75607792 112.43167185 49.87782926 112.71761438 52 113 C47.56319397 95.95669223 41.077947 81.48457872 31 67 C21.19978402 51.98226013 13.31095284 36.22839146 6.4375 19.6875 C6.17175171 19.05199219 5.90600342 18.41648438 5.63220215 17.76171875 C0.84456917 6.26247162 0.84456917 6.26247162 0 0 Z " fill="#EFEFEF" transform="translate(319,198)"/>
<path d="M0 0 C0.495 0.99 0.495 0.99 1 2 C-4.59141527 16.01763898 -13.62921733 28.16457653 -24 39 C-24.65742188 39.72058594 -25.31484375 40.44117188 -25.9921875 41.18359375 C-34.20484496 49.90748089 -43.43746089 54.14297725 -55 57 C-55.66 57 -56.32 57 -57 57 C-56.33834467 55.33133753 -55.67005205 53.66530852 -55 52 C-54.29810547 50.19982422 -54.29810547 50.19982422 -53.58203125 48.36328125 C-49.08825193 37.73615344 -43.74148607 32.70578257 -33.8203125 27.06738281 C-21.42374688 19.7983666 -10.49250747 9.73449363 0 0 Z " fill="#0E0E0E" transform="translate(308,252)"/>
<path d="M0 0 C3.17070317 3.06842242 6.13669733 6.25900281 9.0625 9.5625 C17.72219537 19.21310578 26.77344385 28.00494138 37 36 C38.15003966 36.90586917 39.29976446 37.81213817 40.44921875 38.71875 C42.84242698 40.60362885 45.23841225 42.48489428 47.63671875 44.36328125 C52.11890843 47.87532193 56.57774451 51.41271582 61 55 C61.69609375 55.53625 62.3921875 56.0725 63.109375 56.625 C72.92541945 64.53871025 79.37966699 75.56351795 80.9375 88 C81.10572266 89.7325 81.10572266 89.7325 81.27734375 91.5 C82.14888427 95.72108271 83.70954531 98.37228995 86 102 C87.63007257 99.44060561 89.25415176 96.87772677 90.875 94.3125 C91.33519531 93.59126953 91.79539062 92.87003906 92.26953125 92.12695312 C96.71060118 85.07916824 99.15383037 79.48404686 98 71 C96.91722417 68.60417474 95.69702113 67.05699531 94 65 C93.67 64.34 93.34 63.68 93 63 C96.87292734 64.46904141 98.16113013 66.34286385 100 70 C101.44513575 78.51425815 99.41075513 84.81252597 95 92 C94.46117187 92.90363281 93.92234375 93.80726563 93.3671875 94.73828125 C92.33700592 96.4577389 91.29402819 98.16964031 90.234375 99.87109375 C88.86533364 102.0668487 88.86533364 102.0668487 88 105 C85.51842779 104.63658984 84.33711787 104.45169387 82.8046875 102.3984375 C80.77718663 97.98564149 79.17879365 93.71517462 78 89 C77.03123795 97.20529785 76.20285485 104.42450745 80 112 C80.33 112.33 80.66 112.66 81 113 C81.04063832 114.66617115 81.042721 116.33388095 81 118 C80.71334473 117.41250977 80.42668945 116.82501953 80.13134766 116.21972656 C79.06345252 114.05344077 79.06345252 114.05344077 77.94287109 112.27246094 C74.47443575 106.33444774 74.56802891 100.99210609 74.625 94.25 C74.44468457 83.01856025 72.99675273 75.72798484 65.4375 67.0625 C64.633125 66.381875 63.82875 65.70125 63 65 C62.278125 64.236875 61.55625 63.47375 60.8125 62.6875 C57.51487042 59.53643173 53.99998018 56.76423728 50.40234375 53.96484375 C48.11086285 52.09067319 46.0892662 50.09330734 44 48 C42.26595445 46.54329403 40.51474514 45.10685931 38.75 43.6875 C31.92941388 38.14008995 25.5173027 32.8593493 20 26 C19.236875 25.236875 18.47375 24.47375 17.6875 23.6875 C11.06707902 17.06707902 4.86189202 10.03731525 0 2 C0 1.34 0 0.68 0 0 Z " fill="#E3E3E3" transform="translate(325,193)"/>
<path d="M0 0 C0.33 0 0.66 0 1 0 C2.79256529 14.53916656 4.30064905 28.96443809 4.375 43.625 C4.38853516 44.70628174 4.40207031 45.78756348 4.41601562 46.90161133 C4.35945133 56.99755206 2.63485189 67.03065948 -4 75 C-5.32 75.99 -6.64 76.98 -8 78 C-4.7 78.33 -1.4 78.66 2 79 C2 79.33 2 79.66 2 80 C-1.96 80 -5.92 80 -10 80 C-9 76 -9 76 -6.6875 74.375 C-2.83763029 70.97278956 -1.50941673 66.84025253 0 62 C0 61.34 0 60.68 0 60 C-2.86379162 60.00600679 -2.86379162 60.00600679 -6 61 C-7.67858293 63.1415373 -8.8764479 64.94641671 -10.125 67.3125 C-12.4254991 71.43769216 -14.47535904 74.82782314 -18 78 C-18.66 77.67 -19.32 77.34 -20 77 C-19.34644531 76.35998047 -19.34644531 76.35998047 -18.6796875 75.70703125 C-12.59794159 69.32251444 -7.12724435 62.29152598 -6.94287109 53.17529297 C-7.21558457 46.70417731 -7.95659843 40.28998324 -8.70703125 33.85986328 C-9.24880876 28.57121183 -9.19002927 23.31026235 -9 18 C-8.67 18 -8.34 18 -8 18 C-7.88406494 18.58491211 -7.76812988 19.16982422 -7.64868164 19.77246094 C-7.12097191 22.4318437 -6.59175142 25.09092365 -6.0625 27.75 C-5.88009766 28.67039062 -5.69769531 29.59078125 -5.50976562 30.5390625 C-5.33251953 31.42851562 -5.15527344 32.31796875 -4.97265625 33.234375 C-4.81031494 34.05131836 -4.64797363 34.86826172 -4.48071289 35.70996094 C-4.03730797 37.82227083 -3.53920019 39.910337 -3 42 C-1.43695743 28.00849269 -0.49642073 14.06928998 0 0 Z " fill="#E3E3E3" transform="translate(324,231)"/>
<path d="M0 0 C3.17576578 3.00410277 5.6976575 6.20609998 8.25 9.75 C20.22106469 25.91976121 36.90956004 36.06303408 55.29492188 43.64038086 C63.99050127 47.23394131 70.83381549 51.15760016 76.125 59.25 C77.06009363 62.18886568 76.86344922 63.15426596 76 66 C63.55398095 58.94035027 51.66806398 51.28063638 40 43 C39.1548584 42.4004248 38.3097168 41.80084961 37.43896484 41.18310547 C34.88802698 39.36307326 32.34813074 37.52878562 29.8125 35.6875 C29.04695801 35.13739258 28.28141602 34.58728516 27.49267578 34.02050781 C19.68257424 28.28086368 13.16950541 21.80820546 7.6875 13.8125 C7.27177734 13.22275391 6.85605469 12.63300781 6.42773438 12.02539062 C0 2.83853339 0 2.83853339 0 0 Z " fill="#EAEAEA" transform="translate(319,176)"/>
<path d="M0 0 C5.28908469 2.64454234 10.11506557 5.65283215 13 11 C13.5898641 14.93964277 13.22594906 16.62052146 11.171875 20.0703125 C10.37265625 21.07835937 9.5734375 22.08640625 8.75 23.125 C7.96109375 24.13820312 7.1721875 25.15140625 6.359375 26.1953125 C4.32868509 28.60927831 2.35230894 30.89900612 0 33 C-0.66 33 -1.32 33 -2 33 C-7.72522662 14.35001285 -7.72522662 14.35001285 -3 4.5 C-1.24137931 1.24137931 -1.24137931 1.24137931 0 0 Z " fill="#F0F0F0" transform="translate(342,145)"/>
<path d="M0 0 C0.33 0 0.66 0 1 0 C0.40672732 13.34863528 -9.93666275 23.41976248 -19.1875 32 C-27.95167258 39.5732223 -37.7535735 45.95093088 -47.4765625 52.2109375 C-52.92252426 56.07200637 -55.37082147 60.21684504 -58.1875 66.125 C-58.54263672 66.85332031 -58.89777344 67.58164062 -59.26367188 68.33203125 C-60.18233864 70.2181744 -61.09180473 72.10879246 -62 74 C-62.495 74.99 -62.495 74.99 -63 76 C-42.81942782 69.6087051 -28.35618809 59.11069807 -17 41 C-16.33226562 39.95714844 -15.66453125 38.91429687 -14.9765625 37.83984375 C-10.92397725 31.39939693 -7.23434316 24.88852895 -4 18 C-3 20 -3 20 -3.55395508 21.80908203 C-4.62765394 24.25402057 -5.70416757 26.69548697 -6.8125 29.125 C-7.22048828 30.02210693 -7.62847656 30.91921387 -8.04882812 31.84350586 C-14.07887138 44.78584185 -21.58878685 56.25176948 -31 67 C-31.69867188 67.80824219 -32.39734375 68.61648438 -33.1171875 69.44921875 C-34.73397712 71.30950079 -36.36028693 73.15993613 -38 75 C-37.34 75.66 -36.68 76.32 -36 77 C-37.32 77 -38.64 77 -40 77 C-39.41086998 73.61436672 -38.26432478 71.87234858 -35.9375 69.375 C-33.55013292 67.06597823 -33.55013292 67.06597823 -33 64 C-33.87140625 64.60328125 -34.7428125 65.2065625 -35.640625 65.828125 C-44.27271606 71.6710303 -53.16270226 77.45073752 -64 77 C-62.79387027 67.30573226 -58.81131537 58.10520303 -51.30175781 51.69775391 C-46.10813147 47.86067176 -40.70872677 44.40654473 -35.2265625 41 C-19.2152485 31.03577057 -5.55577538 18.46313232 0 0 Z " fill="#E8E8E8" transform="translate(314,233)"/>
<path d="M0 0 C0 0.99 0 1.98 0 3 C-0.66 3.66 -1.32 4.32 -2 5 C-2.433125 6.2065625 -2.433125 6.2065625 -2.875 7.4375 C-4.14106224 10.32130844 -5.37684406 11.3386679 -8 13 C-7.67 14.32 -7.34 15.64 -7 17 C-6.01 16.7525 -6.01 16.7525 -5 16.5 C-1.26900206 15.87816701 2.21873378 15.93591074 6 16 C6.65601744 17.51646821 7.2992664 19.03846175 7.9375 20.5625 C8.29714844 21.40941406 8.65679687 22.25632813 9.02734375 23.12890625 C10 26 10 26 10.24609375 29.33984375 C11.42738919 35.0749413 15.13177442 38.6723406 18.87109375 43.0390625 C22.99642787 48.13911757 22.99642787 48.13911757 23.015625 52.765625 C20.14541636 61.9061356 11.72239249 68.49291545 5 75 C5.78246094 75.38671875 6.56492187 75.7734375 7.37109375 76.171875 C8.38300781 76.69265625 9.39492188 77.2134375 10.4375 77.75 C11.95150391 78.51570313 11.95150391 78.51570313 13.49609375 79.296875 C16 81 16 81 16.83984375 82.98046875 C17.17590705 87.21814495 17.35294604 90.94116189 16 95 C16.66 95.33 17.32 95.66 18 96 C16.68 95.67 15.36 95.34 14 95 C14.33 92.69 14.66 90.38 15 88 C14.39003174 87.69296143 13.78006348 87.38592285 13.15161133 87.06958008 C10.36669975 85.66058681 7.58964999 84.23672636 4.8125 82.8125 C3.85279297 82.32974609 2.89308594 81.84699219 1.90429688 81.34960938 C-3.17425331 78.73125651 -7.2745937 76.36359154 -11 72 C-7.83414578 73.08826239 -5.15943303 74.49058703 -2.375 76.3125 C2.45609402 79.4010811 7.58684355 82.08625782 13 84 C13.99 83.505 13.99 83.505 15 83 C14.07316406 82.60167969 13.14632813 82.20335937 12.19140625 81.79296875 C10.99386719 81.26316406 9.79632813 80.73335938 8.5625 80.1875 C7.36753906 79.66542969 6.17257812 79.14335937 4.94140625 78.60546875 C2 77 2 77 1 74 C1.86882812 73.29875 2.73765625 72.5975 3.6328125 71.875 C15.38430299 62.95862565 15.38430299 62.95862565 21 50 C20.03374435 47.88495777 20.03374435 47.88495777 18.39453125 46.00390625 C17.82283203 45.28009766 17.25113281 44.55628906 16.66210938 43.81054688 C16.05173828 43.06869141 15.44136719 42.32683594 14.8125 41.5625 C13.62993011 40.08589965 12.44890827 38.60805803 11.26953125 37.12890625 C10.70451904 36.42789795 10.13950684 35.72688965 9.55737305 35.00463867 C8.17267063 33.22226032 6.91578627 31.42016173 5.6953125 29.5234375 C4.25603452 26.92291414 4.25603452 26.92291414 2.0625 26.0625 C-0.42298166 25.98718237 -2.59335712 26.39833928 -5 27 C-3.02579865 24.47740939 -2.03254358 24.0070192 1.1875 23.3125 C2.115625 23.209375 3.04375 23.10625 4 23 C5.32 24.65 6.64 26.3 8 28 C6.515 23.05 6.515 23.05 5 18 C0.2102679 17.76571687 0.2102679 17.76571687 -4 20 C-6.0625 19.8125 -6.0625 19.8125 -8 19 C-10 16 -10 16 -9.875 13.4375 C-9.58625 12.633125 -9.2975 11.82875 -9 11 C-8.360625 10.71125 -7.72125 10.4225 -7.0625 10.125 C-4.57855886 9.08275974 -4.57855886 9.08275974 -3.9375 5.5 C-3.628125 4.345 -3.31875 3.19 -3 2 C-2.01 1.34 -1.02 0.68 0 0 Z " fill="#DFDFDF" transform="translate(341,106)"/>
<path d="M0 0 C5.59444755 1.56124118 9.13932613 3.85536787 12.9453125 8.2421875 C16.99238423 12.31025571 22.28667524 14.66614441 27.3125 17.3125 C28.33923828 17.86228516 29.36597656 18.41207031 30.42382812 18.97851562 C32.94505952 20.32708126 35.47039052 21.66723608 38 23 C37.42415568 25.38564077 36.77772405 27.66682784 36 30 C25.61235079 28.50805756 17.2683703 20.00924836 10 13 C9.24589844 12.29230469 8.49179687 11.58460938 7.71484375 10.85546875 C6 9 6 9 6 7 C5.34 7 4.68 7 4 7 C0 2.52941176 0 2.52941176 0 0 Z " fill="#1A1A1A" transform="translate(319,171)"/>
<path d="M0 0 C1.86540627 4.70406799 3.36843005 8.94744036 4 14 C2.25728062 11.702779 0.60088848 9.40133271 -1 7 C-6.2825286 7.25768432 -8.71706017 9.11562535 -12.38671875 12.625 C-14 14 -14 14 -17 15 C-17 14.34 -17 13.68 -17 13 C-17.83144531 13.34933594 -18.66289062 13.69867188 -19.51953125 14.05859375 C-20.60621094 14.51363281 -21.69289063 14.96867188 -22.8125 15.4375 C-24.43091797 16.11619141 -24.43091797 16.11619141 -26.08203125 16.80859375 C-28.0295126 17.60375013 -30.00438943 18.33479648 -32 19 C-32.33 20.65 -32.66 22.3 -33 24 C-33.33 24 -33.66 24 -34 24 C-34 20.37 -34 16.74 -34 13 C-33.01 14.485 -33.01 14.485 -32 16 C-27.52679722 14.62830791 -23.511145 12.87181077 -19.375 10.6875 C-17.71597656 9.82705078 -17.71597656 9.82705078 -16.0234375 8.94921875 C-12.89848747 6.93455458 -11.20627516 4.95294033 -9 2 C-5.5647952 -0.29013653 -4.014669 -0.17842973 0 0 Z " fill="#232323" transform="translate(346,123)"/>
<path d="M0 0 C1.58598855 2.07178684 3.10284484 4.15543892 4.54296875 6.33203125 C10.40270043 15.17034388 16.31579564 21.8201767 27 24 C31.98973907 24.78837877 36.98026999 25.43784315 42 26 C42 26.33 42 26.66 42 27 C33.65474478 27.51917486 26.08961486 25.95829294 18 24 C17.34 24.99 16.68 25.98 16 27 C12.25014277 26.54743102 8.53231936 26.09393871 4.8125 25.4375 C2.15371904 25.02391185 -0.31511624 24.92103283 -3 25 C2.403124 21.67500061 8.00900249 23.0414404 14 24 C12.4221875 22.824375 12.4221875 22.824375 10.8125 21.625 C6.3602565 17.83067912 4.2480708 13.31285646 2 8 C1.62488281 7.13503906 1.24976563 6.27007812 0.86328125 5.37890625 C0 3 0 3 0 0 Z " fill="#DFDFDF" transform="translate(329,285)"/>
<path d="M0 0 C2.98806885 0.25739919 5.13902373 0.94019144 7.625 2.625 C10.66895529 6.35384523 10.65405257 8.25156609 10.3359375 12.89453125 C10.26632812 13.48621094 10.19671875 14.07789062 10.125 14.6875 C9.795 14.6875 9.465 14.6875 9.125 14.6875 C9.063125 13.45 9.00125 12.2125 8.9375 10.9375 C8.515722 7.63357237 8.22972781 6.80718892 5.9375 4.1875 C2.56516657 2.38892217 0.88010544 1.8885414 -2.875 2.6875 C-4.25942 4.65248322 -5.58703834 6.65798465 -6.875 8.6875 C-8.05320312 9.2340625 -9.23140625 9.780625 -10.4453125 10.34375 C-12.71920352 11.57466649 -13.68029877 12.12654261 -14.53833008 14.59863281 C-14.78874523 16.90173599 -14.84514948 19.12130764 -14.8125 21.4375 C-14.82861328 22.23027344 -14.84472656 23.02304688 -14.86132812 23.83984375 C-14.89654931 25.78874959 -14.88989538 27.73833284 -14.875 29.6875 C-12.895 29.3575 -10.915 29.0275 -8.875 28.6875 C-6.56093888 32.15859168 -6.78880385 33.63628113 -6.875 37.6875 C-6.545 38.3475 -6.215 39.0075 -5.875 39.6875 C-10.49940425 41.76376313 -14.9758651 43.38772952 -19.875 44.6875 C-19.545 43.6975 -19.215 42.7075 -18.875 41.6875 C-16.80859375 40.73828125 -16.80859375 40.73828125 -14.3125 40 C-13.48621094 39.74863281 -12.65992188 39.49726563 -11.80859375 39.23828125 C-11.17050781 39.05652344 -10.53242188 38.87476563 -9.875 38.6875 C-8.87282936 35.10422247 -8.87282936 35.10422247 -9.875 31.6875 C-12.90434491 31.02977572 -12.90434491 31.02977572 -15.875 30.6875 C-17.79330363 16.55107788 -17.79330363 16.55107788 -15.875 11.6875 C-13.97568488 10.06571038 -12.08131316 9.00952312 -9.85546875 7.8828125 C-7.52213489 6.68430254 -7.52213489 6.68430254 -5.875 3.375 C-3.875 0.6875 -3.875 0.6875 0 0 Z " fill="#DBDBDB" transform="translate(332.875,91.3125)"/>
<path d="M0 0 C2.49361571 1.20381448 4.68143083 2.45428722 7 4 C7 4.66 7 5.32 7 6 C7.58193115 6.27473145 8.1638623 6.54946289 8.76342773 6.83251953 C12.48213528 8.77366782 15.71468151 11.36187613 19.0625 13.875 C19.78244141 14.40480469 20.50238281 14.93460938 21.24414062 15.48046875 C21.93830078 15.99996094 22.63246094 16.51945312 23.34765625 17.0546875 C23.97679932 17.52374512 24.60594238 17.99280273 25.25415039 18.47607422 C27.16327125 20.14251701 28.54971148 21.92911384 30 24 C19.31458469 22.98686433 9.65570336 12.9498679 3 5 C3 4.34 3 3.68 3 3 C2.34 3 1.68 3 1 3 C0.67 2.01 0.34 1.02 0 0 Z " fill="#DFDFDF" transform="translate(322,175)"/>
<path d="M0 0 C0 0.99 0 1.98 0 3 C-0.66 3.66 -1.32 4.32 -2 5 C-2.433125 6.2065625 -2.433125 6.2065625 -2.875 7.4375 C-4.14106224 10.32130844 -5.37684406 11.3386679 -8 13 C-7.67 14.32 -7.34 15.64 -7 17 C-6.01 16.7525 -6.01 16.7525 -5 16.5 C-1.26900206 15.87816701 2.21873378 15.93591074 6 16 C10.59225513 26.37357631 10.59225513 26.37357631 10 32 C8.38274466 28.99049877 7.32417377 26.02896392 6.375 22.75 C5.98441406 21.41195312 5.98441406 21.41195312 5.5859375 20.046875 C5.39257812 19.37140625 5.19921875 18.6959375 5 18 C0.2102679 17.76571687 0.2102679 17.76571687 -4 20 C-6.0625 19.8125 -6.0625 19.8125 -8 19 C-10 16 -10 16 -9.875 13.4375 C-9.58625 12.633125 -9.2975 11.82875 -9 11 C-8.360625 10.71125 -7.72125 10.4225 -7.0625 10.125 C-4.57855886 9.08275974 -4.57855886 9.08275974 -3.9375 5.5 C-3.628125 4.345 -3.31875 3.19 -3 2 C-2.01 1.34 -1.02 0.68 0 0 Z " fill="#EBEBEB" transform="translate(341,106)"/>
<path d="M0 0 C2.30852529 1.79078215 2.95215661 2.65737963 3.36328125 5.6015625 C3.25531954 12.02943673 2.65789416 17.78289691 1 24 C1.98742187 24.68707031 2.97484375 25.37414062 3.9921875 26.08203125 C5.28665368 26.99190965 6.58091381 27.90208124 7.875 28.8125 C8.52597656 29.26431641 9.17695313 29.71613281 9.84765625 30.18164062 C10.47285156 30.62314453 11.09804688 31.06464844 11.7421875 31.51953125 C12.3182373 31.92276611 12.89428711 32.32600098 13.48779297 32.74145508 C15 34 15 34 17 37 C13.6868029 35.42154289 10.6055035 33.57873709 7.5 31.625 C6.5615625 31.03976563 5.623125 30.45453125 4.65625 29.8515625 C2.13170628 28.09180703 0.095604 26.24387787 -2 24 C-1.7834375 23.29875 -1.566875 22.5975 -1.34375 21.875 C0.90121484 14.22549016 1.97006983 7.88027933 0 0 Z " fill="#E9E9E9" transform="translate(401,219)"/>
<path d="M0 0 C1.32 0.33 2.64 0.66 4 1 C4 1.66 4 2.32 4 3 C4.88751953 3.27263672 4.88751953 3.27263672 5.79296875 3.55078125 C10.212508 4.95667057 14.12540125 6.37527181 18 9 C17.67 9.66 17.34 10.32 17 11 C11.80355921 9.40109514 6.93387858 7.25861997 2 5 C2.33 4.01 2.66 3.02 3 2 C2.01 1.67 1.02 1.34 0 1 C0 0.67 0 0.34 0 0 Z " fill="#282828" transform="translate(339,180)"/>
<path d="M0 0 C0.66 0.33 1.32 0.66 2 1 C-3.26336922 5.52438615 -8.07613432 7.99491471 -14.77734375 9.84765625 C-15.87755859 10.41806641 -15.87755859 10.41806641 -17 11 C-17.89945784 13.54457323 -17.89945784 13.54457323 -18 16 C-18.33 16 -18.66 16 -19 16 C-19 12.37 -19 8.74 -19 5 C-18.01 6.485 -18.01 6.485 -17 8 C-11.63245398 6.54931189 -7.15751656 3.92521799 -2.390625 1.14453125 C-1.60171875 0.76683594 -0.8128125 0.38914063 0 0 Z " fill="#E0E0E0" transform="translate(331,131)"/>
<path d="M0 0 C5.72858491 5.54379185 11.57298662 11.35947993 16 18 C15.01 18.33 14.02 18.66 13 19 C0 3.38888889 0 3.38888889 0 0 Z " fill="#C4C4C4" transform="translate(325,193)"/>
<path d="M0 0 C1 2 1 2 0.35083008 4.04711914 C-0.81346188 6.72612102 -1.98901645 9.39858956 -3.1875 12.0625 C-3.58775391 12.99900391 -3.98800781 13.93550781 -4.40039062 14.90039062 C-4.9969043 16.23553711 -4.9969043 16.23553711 -5.60546875 17.59765625 C-5.96793701 18.41758057 -6.33040527 19.23750488 -6.70385742 20.08227539 C-8 22 -8 22 -10.1496582 22.77514648 C-10.760271 22.84934814 -11.37088379 22.9235498 -12 23 C-10.90876412 19.82549562 -9.49699857 17.1177918 -7.6875 14.3125 C-4.74161847 9.72709512 -2.36230261 4.90554756 0 0 Z " fill="#C5C5C5" transform="translate(310,251)"/>
<path d="M0 0 C3.72343785 1.47205683 4.84015194 3.80834197 6.8671875 7.15234375 C7.13789063 7.78269531 7.40859375 8.41304687 7.6875 9.0625 C7.3575 9.7225 7.0275 10.3825 6.6875 11.0625 C6.37296875 10.56878906 6.0584375 10.07507813 5.734375 9.56640625 C5.30640625 8.92574219 4.8784375 8.28507813 4.4375 7.625 C4.01984375 6.98691406 3.6021875 6.34882813 3.171875 5.69140625 C1.3809896 3.72614516 0.29720823 3.38871353 -2.3125 3.0625 C-4.99399993 3.44817131 -4.99399993 3.44817131 -7.3125 4.0625 C-3.51756634 0.09506936 -3.51756634 0.09506936 0 0 Z " fill="#C9C9C9" transform="translate(343.3125,128.9375)"/>
<path d="M0 0 C3.84516615 3.54938414 7.15122083 7.61288008 10 12 C10 12.66 10 13.32 10 14 C6.08402356 12.69467452 5.46169654 11.02734726 3.3125 7.5625 C2.68988281 6.57378906 2.06726563 5.58507812 1.42578125 4.56640625 C0 2 0 2 0 0 Z " fill="#CCCCCC" transform="translate(319,176)"/>
<path d="M0 0 C4.99275057 1.27721526 7.57611908 3.17330957 11 7 C6.4923533 6.46968862 3.58045212 4.74778884 0 2 C0 1.34 0 0.68 0 0 Z " fill="#5B5B5B" transform="translate(319,171)"/>
<path d="M0 0 C3.11198065 1.49836105 6.0534615 3.19933758 9 5 C8.67 5.99 8.34 6.98 8 8 C6.84772177 7.23883449 5.7033614 6.46567307 4.5625 5.6875 C3.92441406 5.25824219 3.28632813 4.82898438 2.62890625 4.38671875 C1 3 1 3 0 0 Z " fill="#262626" transform="translate(328,178)"/>
<path d="M0 0 C-2.36292656 2.52588702 -3.66462511 3.88820837 -7 5 C-7.33 4.01 -7.66 3.02 -8 2 C-4.77208445 -0.1519437 -3.71599191 -0.20086443 0 0 Z " fill="#545454" transform="translate(336,133)"/>
<path d="M0 0 C2.45140787 2.45140787 3.63817703 4.82241307 5 8 C4.67 8.99 4.34 9.98 4 11 C1.6870518 8.6870518 1.50419025 7.52095125 0.875 4.375 C0.70742188 3.55773437 0.53984375 2.74046875 0.3671875 1.8984375 C0.24601562 1.27195313 0.12484375 0.64546875 0 0 Z " fill="#CACACA" transform="translate(319,198)"/>
</svg>
